<mxfile host="app.diagrams.net" agent="Mozilla/5.0 (Windows NT 10.0; Win64; x64; rv:137.0) Gecko/20100101 Firefox/137.0" version="26.1.0">
  <diagram name="Seite-1" id="aP4rrtuoonjq_RYsqxfe">
    <mxGraphModel dx="1434" dy="774" grid="1" gridSize="10" guides="1" tooltips="1" connect="1" arrows="1" fold="1" page="1" pageScale="1" pageWidth="827" pageHeight="1169" math="0" shadow="0">
      <root>
        <mxCell id="0" />
        <mxCell id="1" parent="0" />
        <mxCell id="KXCHwMyHNiFHoIP_FRbB-1" value="" style="rounded=0;whiteSpace=wrap;html=1;fillColor=#fff2cc;strokeColor=#d6b656;" vertex="1" parent="1">
          <mxGeometry x="44" y="130" width="740" height="190" as="geometry" />
        </mxCell>
        <mxCell id="KXCHwMyHNiFHoIP_FRbB-2" value="&lt;b&gt;&lt;font style=&quot;font-size: 15px;&quot;&gt;Anwendungsschicht&lt;/font&gt;&lt;/b&gt;" style="text;html=1;align=center;verticalAlign=middle;whiteSpace=wrap;rounded=0;" vertex="1" parent="1">
          <mxGeometry x="100" y="130" width="60" height="30" as="geometry" />
        </mxCell>
        <mxCell id="KXCHwMyHNiFHoIP_FRbB-3" value="" style="rounded=0;whiteSpace=wrap;html=1;fillColor=#fff2cc;strokeColor=#d6b656;" vertex="1" parent="1">
          <mxGeometry x="44" y="380" width="740" height="190" as="geometry" />
        </mxCell>
        <mxCell id="KXCHwMyHNiFHoIP_FRbB-4" value="" style="rounded=0;whiteSpace=wrap;html=1;fillColor=#fff2cc;strokeColor=#d6b656;" vertex="1" parent="1">
          <mxGeometry x="44" y="630" width="740" height="190" as="geometry" />
        </mxCell>
        <mxCell id="KXCHwMyHNiFHoIP_FRbB-5" value="&lt;font style=&quot;font-size: 14px;&quot;&gt;&lt;b&gt;&lt;font&gt;Steuerungsschicht&lt;/font&gt;&lt;/b&gt;&lt;/font&gt;" style="text;html=1;align=center;verticalAlign=middle;whiteSpace=wrap;rounded=0;" vertex="1" parent="1">
          <mxGeometry x="100" y="390" width="60" height="30" as="geometry" />
        </mxCell>
        <mxCell id="KXCHwMyHNiFHoIP_FRbB-6" value="&lt;font style=&quot;font-size: 14px;&quot;&gt;&lt;b&gt;Infrastrukturebene&lt;/b&gt;&lt;/font&gt;" style="text;html=1;align=center;verticalAlign=middle;whiteSpace=wrap;rounded=0;" vertex="1" parent="1">
          <mxGeometry x="90" y="640" width="60" height="30" as="geometry" />
        </mxCell>
        <mxCell id="KXCHwMyHNiFHoIP_FRbB-7" value="Topologie Anwendung" style="rounded=1;whiteSpace=wrap;html=1;fillColor=#dae8fc;strokeColor=#6c8ebf;" vertex="1" parent="1">
          <mxGeometry x="60" y="170" width="120" height="50" as="geometry" />
        </mxCell>
        <mxCell id="KXCHwMyHNiFHoIP_FRbB-8" value="NW Management Anwendung" style="rounded=1;whiteSpace=wrap;html=1;fillColor=#dae8fc;strokeColor=#6c8ebf;" vertex="1" parent="1">
          <mxGeometry x="190" y="170" width="120" height="50" as="geometry" />
        </mxCell>
        <mxCell id="KXCHwMyHNiFHoIP_FRbB-9" value="Flow Optimierungs- Anwendung" style="rounded=1;whiteSpace=wrap;html=1;fillColor=#dae8fc;strokeColor=#6c8ebf;" vertex="1" parent="1">
          <mxGeometry x="60" y="230" width="120" height="50" as="geometry" />
        </mxCell>
        <mxCell id="KXCHwMyHNiFHoIP_FRbB-10" value="Loadbalancer Anwendung" style="rounded=1;whiteSpace=wrap;html=1;fillColor=#dae8fc;strokeColor=#6c8ebf;" vertex="1" parent="1">
          <mxGeometry x="190" y="230" width="120" height="50" as="geometry" />
        </mxCell>
        <mxCell id="KXCHwMyHNiFHoIP_FRbB-11" value="Automatisierung- Anwendung" style="rounded=1;whiteSpace=wrap;html=1;fillColor=#dae8fc;strokeColor=#6c8ebf;" vertex="1" parent="1">
          <mxGeometry x="320" y="170" width="120" height="50" as="geometry" />
        </mxCell>
        <mxCell id="KXCHwMyHNiFHoIP_FRbB-12" value="Bandbreite- Anwendung" style="rounded=1;whiteSpace=wrap;html=1;fillColor=#dae8fc;strokeColor=#6c8ebf;" vertex="1" parent="1">
          <mxGeometry x="320" y="230" width="120" height="50" as="geometry" />
        </mxCell>
        <mxCell id="KXCHwMyHNiFHoIP_FRbB-13" value="Policy Enforcement- Anwendung" style="rounded=1;whiteSpace=wrap;html=1;fillColor=#dae8fc;strokeColor=#6c8ebf;" vertex="1" parent="1">
          <mxGeometry x="450" y="170" width="120" height="50" as="geometry" />
        </mxCell>
        <mxCell id="KXCHwMyHNiFHoIP_FRbB-14" value="TOR Switches" style="rounded=1;whiteSpace=wrap;html=1;fillColor=#dae8fc;strokeColor=#6c8ebf;" vertex="1" parent="1">
          <mxGeometry x="60" y="680" width="120" height="50" as="geometry" />
        </mxCell>
        <mxCell id="KXCHwMyHNiFHoIP_FRbB-15" value="Switches (Openflow)" style="rounded=1;whiteSpace=wrap;html=1;fillColor=#dae8fc;strokeColor=#6c8ebf;" vertex="1" parent="1">
          <mxGeometry x="60" y="740" width="120" height="50" as="geometry" />
        </mxCell>
        <mxCell id="KXCHwMyHNiFHoIP_FRbB-16" value="DC Gateways (Edge Routers)" style="rounded=1;whiteSpace=wrap;html=1;fillColor=#dae8fc;strokeColor=#6c8ebf;" vertex="1" parent="1">
          <mxGeometry x="190" y="680" width="120" height="50" as="geometry" />
        </mxCell>
        <mxCell id="KXCHwMyHNiFHoIP_FRbB-17" value="Servers" style="rounded=1;whiteSpace=wrap;html=1;fillColor=#dae8fc;strokeColor=#6c8ebf;" vertex="1" parent="1">
          <mxGeometry x="190" y="740" width="120" height="50" as="geometry" />
        </mxCell>
        <mxCell id="KXCHwMyHNiFHoIP_FRbB-18" value="" style="rounded=1;whiteSpace=wrap;html=1;fillColor=#dae8fc;strokeColor=#6c8ebf;" vertex="1" parent="1">
          <mxGeometry x="210" y="400" width="540" height="150" as="geometry" />
        </mxCell>
        <mxCell id="KXCHwMyHNiFHoIP_FRbB-19" value="&lt;b&gt;SDN Controller&lt;/b&gt;" style="text;html=1;align=center;verticalAlign=middle;whiteSpace=wrap;rounded=0;" vertex="1" parent="1">
          <mxGeometry x="220" y="400" width="110" height="30" as="geometry" />
        </mxCell>
        <mxCell id="KXCHwMyHNiFHoIP_FRbB-20" value="GUI Modul" style="rounded=1;whiteSpace=wrap;html=1;fillColor=#ffe6cc;strokeColor=#d79b00;" vertex="1" parent="1">
          <mxGeometry x="220" y="430" width="120" height="40" as="geometry" />
        </mxCell>
        <mxCell id="KXCHwMyHNiFHoIP_FRbB-21" value="L3VPN Modul" style="rounded=1;whiteSpace=wrap;html=1;fillColor=#ffe6cc;strokeColor=#d79b00;" vertex="1" parent="1">
          <mxGeometry x="220" y="480" width="120" height="40" as="geometry" />
        </mxCell>
        <mxCell id="KXCHwMyHNiFHoIP_FRbB-22" value="Cluster Modul" style="rounded=1;whiteSpace=wrap;html=1;fillColor=#ffe6cc;strokeColor=#d79b00;" vertex="1" parent="1">
          <mxGeometry x="354" y="430" width="120" height="40" as="geometry" />
        </mxCell>
        <mxCell id="KXCHwMyHNiFHoIP_FRbB-23" value="L2/L3 Modul" style="rounded=1;whiteSpace=wrap;html=1;fillColor=#ffe6cc;strokeColor=#d79b00;" vertex="1" parent="1">
          <mxGeometry x="490" y="430" width="120" height="40" as="geometry" />
        </mxCell>
        <mxCell id="KXCHwMyHNiFHoIP_FRbB-24" value="ACL/QoS Modul" style="rounded=1;whiteSpace=wrap;html=1;fillColor=#ffe6cc;strokeColor=#d79b00;" vertex="1" parent="1">
          <mxGeometry x="354" y="480" width="120" height="40" as="geometry" />
        </mxCell>
        <mxCell id="KXCHwMyHNiFHoIP_FRbB-25" value="Südgerichtete Schnittstellen - Ovsdbm, Netconf, Openflow, etc." style="rounded=1;whiteSpace=wrap;html=1;fillColor=#ffe6cc;strokeColor=#d79b00;" vertex="1" parent="1">
          <mxGeometry x="620" y="430" width="120" height="90" as="geometry" />
        </mxCell>
        <mxCell id="KXCHwMyHNiFHoIP_FRbB-26" value="DHCP Modul" style="rounded=1;whiteSpace=wrap;html=1;fillColor=#ffe6cc;strokeColor=#d79b00;" vertex="1" parent="1">
          <mxGeometry x="490" y="480" width="120" height="40" as="geometry" />
        </mxCell>
        <mxCell id="KXCHwMyHNiFHoIP_FRbB-27" value="" style="shape=flexArrow;endArrow=classic;startArrow=classic;html=1;rounded=0;entryX=0.5;entryY=0;entryDx=0;entryDy=0;exitX=0.5;exitY=1;exitDx=0;exitDy=0;" edge="1" parent="1" source="KXCHwMyHNiFHoIP_FRbB-3" target="KXCHwMyHNiFHoIP_FRbB-4">
          <mxGeometry width="100" height="100" relative="1" as="geometry">
            <mxPoint x="360" y="540" as="sourcePoint" />
            <mxPoint x="460" y="440" as="targetPoint" />
          </mxGeometry>
        </mxCell>
        <mxCell id="KXCHwMyHNiFHoIP_FRbB-28" value="&lt;font style=&quot;font-size: 14px;&quot;&gt;&lt;b&gt;Südgerichtete Schnittstellen&lt;/b&gt;&lt;/font&gt;" style="text;html=1;align=center;verticalAlign=middle;whiteSpace=wrap;rounded=0;" vertex="1" parent="1">
          <mxGeometry x="440" y="585" width="210" height="30" as="geometry" />
        </mxCell>
        <mxCell id="KXCHwMyHNiFHoIP_FRbB-29" value="" style="shape=flexArrow;endArrow=classic;startArrow=classic;html=1;rounded=0;entryX=0.5;entryY=0;entryDx=0;entryDy=0;exitX=0.5;exitY=1;exitDx=0;exitDy=0;" edge="1" parent="1">
          <mxGeometry width="100" height="100" relative="1" as="geometry">
            <mxPoint x="413" y="320" as="sourcePoint" />
            <mxPoint x="413" y="380" as="targetPoint" />
          </mxGeometry>
        </mxCell>
        <mxCell id="KXCHwMyHNiFHoIP_FRbB-30" value="&lt;font style=&quot;font-size: 14px;&quot;&gt;&lt;b&gt;Nordgerichtete Schnittstellen&lt;/b&gt;&lt;/font&gt;" style="text;html=1;align=center;verticalAlign=middle;whiteSpace=wrap;rounded=0;" vertex="1" parent="1">
          <mxGeometry x="440" y="330" width="210" height="30" as="geometry" />
        </mxCell>
      </root>
    </mxGraphModel>
  </diagram>
</mxfile>
